<svg id="search" xmlns="http://www.w3.org/2000/svg" viewBox="0 0 64 64" width="30" height="30"><path fill="#dadcec" d="M40.78 41.46h5.54v4h-5.54z" transform="rotate(-45 43.543 43.464)"/><rect width="8.49" height="22.51" x="48.8" y="41.79" fill="#cda1a7" rx="4" ry="4" transform="rotate(-45 53.04 53.04)"/><rect width="4.24" height="22.51" x="49.42" y="43.29" fill="#c4939c" rx="2.12" ry="2.12" transform="rotate(-45 51.542 54.54)"/><path fill="#ffeb9b" d="M25 1a24 24 0 1 0 0 48 24 24 0 1 0 0-48Z"/><path fill="#f6d397" d="m11.14 38.86 27.72-27.72a4 4 0 0 1 6.11.54A24 24 0 0 1 11.68 45a4 4 0 0 1-.54-6.14Z"/><path fill="#bbdef9" d="M25 7a18 18 0 1 0 0 36 18 18 0 1 0 0-36Z"/><path fill="#d2edff" d="M25 18a7 7 0 1 0 0 14 7 7 0 1 0 0-14Z"/><path fill="#f3f3f3" d="M21 17a4 4 0 1 0 0 8 4 4 0 1 0 0-8zm8.5 11a1.5 1.5 0 1 0 0 3 1.5 1.5 0 1 0 0-3z"/><path fill="#8d6c9f" d="M38.44 11.57a19 19 0 1 0 0 26.87 18.88 18.88 0 0 0 0-26.87ZM37 37a17 17 0 1 1 0-24 16.89 16.89 0 0 1 0 24Z"/><path fill="#8d6c9f" d="M31.2 14.72a12 12 0 0 1 2.28 1.79 1 1 0 1 0 1.42-1.41 14.08 14.08 0 0 0-2.67-2.1 1 1 0 0 0-1 1.71zm-4.82-3.65a14 14 0 0 0-11.27 4 1 1 0 1 0 1.41 1.41 12 12 0 0 1 9.67-3.46 1 1 0 1 0 .2-2z"/><path fill="#8d6c9f" d="M61.88 54.46 51.54 44.12a5 5 0 0 0-3.6-1.45c0-.14-2.77-2.91-2.77-2.91a25 25 0 1 0-5.41 5.41s2.78 2.72 2.91 2.77 0 0 0 .07a5 5 0 0 0 1.46 3.54l10.33 10.33a5 5 0 0 0 7.07 0l.34-.34a5 5 0 0 0 0-7.07ZM2 25a23 23 0 1 1 23 23A23 23 0 0 1 2 25Zm42.12 19.46a5 5 0 0 0-.92 1.32l-1.87-1.87a25.2 25.2 0 0 0 2.59-2.59l1.88 1.88a5 5 0 0 0-1.32.92Zm16.34 15.66-.34.34a3 3 0 0 1-4.24 0L45.54 50.12a3 3 0 0 1 0-4.24l.34-.34a3 3 0 0 1 4.24 0l10.34 10.34a3 3 0 0 1 0 4.24Z"/><path fill="#8d6c9f" d="M34.19 32.78a1 1 0 0 0-1.41 1.41l1.41 1.41a1 1 0 0 0 1.41-1.41zm-18.38 0-1.41 1.41a1 1 0 1 0 1.41 1.41l1.41-1.41a1 1 0 0 0-1.41-1.41zM39 24h-2a1 1 0 0 0 0 2h2a1 1 0 0 0 0-2zm-25 1a1 1 0 0 0-1-1h-2a1 1 0 0 0 0 2h2a1 1 0 0 0 1-1zm11 11a1 1 0 0 0-1 1v2a1 1 0 0 0 2 0v-2a1 1 0 0 0-1-1zm13.28-6.45-1.84-.78a1 1 0 1 0-.78 1.84l1.84.78a1 1 0 1 0 .78-1.84zM20.7 35.13a1 1 0 0 0-1.31.53l-.78 1.84a1 1 0 1 0 1.84.78l.78-1.84a1 1 0 0 0-.53-1.31zm-5.9-6.01a1 1 0 0 0-1.3-.55l-1.85.75a1 1 0 1 0 .75 1.85l1.85-.75a1 1 0 0 0 .55-1.3zm15.62 6.63a1 1 0 0 0-1.85.75l.75 1.85a1 1 0 0 0 1.85-.75z"/></svg>