<svg id="scrollUp" height="40" width="40" version="1.1" xmlns="http://www.w3.org/2000/svg" viewBox="0 0 512 512" xml:space="preserve"><path style="fill:#fff173" d="M390.467 196.487h-99.478v270.325c0 19.324-15.665 34.989-34.989 34.989s-34.989-15.665-34.989-34.989V196.487h-99.478c-14.309 0-25.91-11.601-25.91-25.91 0-6.872 2.73-13.462 7.589-18.322L237.678 17.788A25.829 25.829 0 0 1 256 10.199a25.829 25.829 0 0 1 18.322 7.589l134.467 134.467a25.912 25.912 0 0 1 7.589 18.322c-.001 14.309-11.601 25.91-25.911 25.91z"/><path style="fill:#248a9c" d="M256 512c-24.918 0-45.189-20.271-45.189-45.189V206.686h-89.279c-19.911 0-36.109-16.198-36.109-36.109 0-9.645 3.756-18.712 10.576-25.534L230.466 10.577C237.288 3.756 246.356 0 256 0c9.644 0 18.712 3.756 25.533 10.577L416 145.043c6.821 6.821 10.577 15.889 10.577 25.534 0 19.911-16.198 36.109-36.109 36.109h-89.279V466.81c0 24.919-20.271 45.19-45.189 45.19zm0-491.602A15.618 15.618 0 0 0 244.889 25L110.423 159.467a15.61 15.61 0 0 0-4.602 11.11c0 8.663 7.048 15.711 15.711 15.711h99.478c5.632 0 10.199 4.566 10.199 10.199V466.81c.001 13.67 11.122 24.791 24.791 24.791s24.79-11.121 24.79-24.79V196.487c0-5.633 4.567-10.199 10.199-10.199h99.478c8.663 0 15.711-7.048 15.711-15.711a15.61 15.61 0 0 0-4.603-11.11L267.109 25A15.61 15.61 0 0 0 256 20.398z"/><path style="fill:#248a9c" d="M342.693 134.856c-2.611 0-5.22-.995-7.212-2.987l-2.266-2.266c-3.983-3.983-3.983-10.441 0-14.425 3.984-3.983 10.44-3.983 14.425 0l2.266 2.266c3.983 3.983 3.983 10.441 0 14.425a10.173 10.173 0 0 1-7.213 2.987zM317.314 109.642c-2.611 0-5.22-.995-7.212-2.987l-59.666-59.666c-3.983-3.983-3.983-10.441 0-14.424 3.985-3.982 10.441-3.983 14.425 0l59.666 59.666c3.983 3.984 3.983 10.441 0 14.425a10.175 10.175 0 0 1-7.213 2.986z"/></svg>